<?xml version="1.0"?>
<svg width="24.999999999999996" height="22" xmlns="http://www.w3.org/2000/svg" xmlns:svg="http://www.w3.org/2000/svg" version="1.1">
 <g class="layer">
  <title>Layer 1</title>
  <path d="m24.9,8.59c-0.13,0.41 -0.35,0.8 -0.52,1.19c-0.76,1.75 -1.5,3.5 -2.28,5.24c-0.63,1.43 -1.78,2.19 -3.3,2.25c-1.77,0.06 -3.53,0.01 -5.3,0.02c-1.6,0 -3.19,-0.01 -4.79,0c-0.93,0 -1.61,-0.63 -1.76,-1.55c-0.2,-1.2 -0.45,-2.38 -0.67,-3.57c-0.27,-1.39 -0.55,-2.77 -0.79,-4.17c-0.04,-0.25 0.04,-0.55 0.16,-0.78c0.31,-0.61 0.83,-0.94 1.53,-0.94c2.61,0 5.21,0 7.82,0c0,0 0,0 0,0c2.54,0 5.08,-0.01 7.62,0.01c0.41,0 0.85,0.07 1.24,0.2c0.95,0.33 1.34,1.15 1.04,2.1zm-14.88,-1.51c-0.99,0 -1.97,0 -2.94,0.01c-0.42,0 -0.86,0.46 -0.81,0.8c0.09,0.51 0.2,1.02 0.3,1.54c1.16,0 2.3,0 3.45,0c0,-0.79 0,-1.56 0,-2.35zm0,3.17c-1.1,0 -2.18,0 -3.3,0c0.17,0.89 0.34,1.74 0.5,2.59c0.95,0 1.87,0 2.8,0c0,-0.87 0,-1.73 0,-2.59zm0.01,3.43c-0.89,0 -1.75,0 -2.63,0c0,0.05 0,0.09 0.01,0.13c0.12,0.66 0.23,1.32 0.36,1.97c0.07,0.35 0.31,0.63 0.65,0.66c0.53,0.06 1.07,0.02 1.61,0.02c0,-0.94 0,-1.85 0,-2.78zm4.75,-6.59c-1.31,0 -2.6,0 -3.92,0c0,0.79 0,1.57 0,2.33c1.32,0 2.62,0 3.92,0c0,-0.78 0,-1.55 0,-2.33zm0,3.17c-1.31,0 -2.61,0 -3.93,0c0,0.86 0,1.71 0,2.58c1.33,0 2.63,0 3.93,0c0,-0.87 0,-1.72 0,-2.58zm0.01,3.42c-1.33,0 -2.63,0 -3.93,0c0,0.94 0,1.86 0,2.78c1.32,0 2.62,0 3.93,0c0,-0.93 0,-1.85 0,-2.78zm5.58,2.23c0.6,-0.35 1.31,-1.49 1.4,-2.24c-0.46,0 -0.92,0 -1.4,0c0,0.76 0,1.5 0,2.24zm-0.84,-8.82c-1.31,0 -2.6,0 -3.92,0c0,0.79 0,1.57 0,2.33c1.32,0 2.62,0 3.92,0c0,-0.79 0,-1.55 0,-2.33zm0.01,3.17c-1.33,0 -2.63,0 -3.93,0c0,0.87 0,1.72 0,2.59c1.31,0 2.61,0 3.93,0c0,-0.87 0,-1.72 0,-2.59zm0.01,4.42c0,-0.33 0,-0.66 0,-1c-1.33,0 -2.63,0 -3.94,0c0,0.93 0,1.85 0,2.79c0.06,0 0.11,0.01 0.16,0.01c0.98,0 1.96,0 2.95,-0.01c0.21,0 0.42,-0.06 0.64,-0.08c0.16,-0.02 0.19,-0.11 0.19,-0.26c-0.01,-0.48 0,-0.97 0,-1.45zm0.8,-1.82c0.59,0 1.15,0 1.72,-0.01c0.06,0 0.14,-0.09 0.17,-0.16c0.23,-0.51 0.45,-1.03 0.67,-1.54c0.13,-0.29 0.25,-0.59 0.38,-0.88c-1,0 -1.96,0 -2.94,0c0,0.86 0,1.7 0,2.59zm3.11,-5.67c-0.08,-0.03 -0.17,-0.06 -0.26,-0.06c-0.94,0 -1.88,0 -2.84,0c0,0.75 0,1.52 0,2.31c1.08,0 2.14,0 3.21,0c0.04,0 0.09,-0.04 0.11,-0.08c0.14,-0.29 0.3,-0.57 0.42,-0.88c0.25,-0.65 0.03,-1.08 -0.64,-1.29zm-17.35,12.4c0.3,0 0.57,-0.01 0.84,0c0.3,0 0.47,0.16 0.46,0.41c0,0.24 -0.17,0.39 -0.45,0.39c-0.36,0 -0.72,0 -1.08,0c-0.33,0 -0.46,-0.11 -0.52,-0.44c-0.19,-1.06 -0.38,-2.13 -0.57,-3.19c-0.43,-2.46 -0.87,-4.92 -1.31,-7.38c-0.22,-1.25 -0.45,-2.5 -0.67,-3.75c-0.02,-0.12 -0.04,-0.28 0.02,-0.36c0.07,-0.12 0.22,-0.22 0.36,-0.24c0.19,-0.04 0.33,0.1 0.37,0.29c0.07,0.32 0.13,0.64 0.19,0.96c0.44,2.51 0.89,5.02 1.33,7.53c0.33,1.83 0.65,3.65 0.97,5.48c0.02,0.09 0.04,0.18 0.06,0.3zm-3.79,-14.87c-1.28,0 -2.32,-1.06 -2.32,-2.36c0,-1.31 1.05,-2.36 2.35,-2.36c1.3,0 2.36,1.07 2.35,2.37c-0.01,1.32 -1.06,2.36 -2.38,2.35zm0.02,-3.92c-0.84,0.01 -1.53,0.7 -1.54,1.55c-0.01,0.87 0.68,1.57 1.54,1.57c0.85,0 1.56,-0.7 1.56,-1.55c0,-0.86 -0.71,-1.57 -1.56,-1.57zm7.46,17.25c1.08,0.03 1.93,0.92 1.92,2c0,1.07 -0.91,1.96 -1.97,1.95c-1.08,-0.01 -1.96,-0.9 -1.95,-1.97c0.01,-1.11 0.91,-2 2,-1.98zm-0.03,3.15c0.64,-0.01 1.15,-0.53 1.15,-1.18c0,-0.64 -0.52,-1.16 -1.16,-1.16c-0.63,0 -1.16,0.53 -1.16,1.17c0.01,0.64 0.53,1.17 1.17,1.17zm2.84,-1.61c0.49,0 0.98,0 1.47,0c0.49,0 0.98,-0.01 1.47,0c0.3,0 0.48,0.16 0.49,0.39c0,0.24 -0.19,0.41 -0.49,0.41c-0.98,0 -1.96,0 -2.94,0c-0.29,0 -0.47,-0.16 -0.47,-0.4c0,-0.25 0.17,-0.4 0.47,-0.4zm5.75,-1.54c1.08,0.01 1.95,0.89 1.95,1.97c0,1.09 -0.87,1.97 -1.94,1.98c-1.09,0.01 -1.98,-0.88 -1.98,-1.97c0,-1.09 0.89,-1.98 1.97,-1.98zm0,3.15c0.63,-0.01 1.15,-0.54 1.15,-1.18c-0.01,-0.64 -0.53,-1.16 -1.17,-1.16c-0.64,0.01 -1.15,0.53 -1.15,1.18c0.01,0.64 0.53,1.16 1.17,1.16zm2.88,-1.61c0.12,-0.01 0.24,0 0.37,0c0.11,0 0.23,-0.01 0.35,0c0.22,0.03 0.34,0.16 0.36,0.38c0.02,0.2 -0.14,0.39 -0.35,0.41c-0.25,0.02 -0.5,0.02 -0.74,0c-0.22,-0.02 -0.35,-0.16 -0.35,-0.38c-0.01,-0.22 0.14,-0.38 0.36,-0.41z" fill="#DAE9E9" id="Cart"/>
  <line fill="none" id="svg_1" stroke="#6aff00" stroke-width="2" x1="23.98" x2="1.48" y1="1.8" y2="21.32"/>
  <line fill="none" id="svg_2" stroke="#6aff00" stroke-width="2" transform="matrix(1 0 0 1 0 0)" x1="1.48" x2="23.98" y1="1.9" y2="21.41"/>
 </g>
</svg>