<?xml version="1.0" encoding="UTF-8"?>
<!DOCTYPE svg PUBLIC "-//W3C//DTD SVG 1.1//EN" "http://www.w3.org/Graphics/SVG/1.1/DTD/svg11.dtd">
<svg xmlns="http://www.w3.org/2000/svg" version="1.1" width="633px" height="726px" style="shape-rendering:geometricPrecision; text-rendering:geometricPrecision; image-rendering:optimizeQuality; fill-rule:evenodd; clip-rule:evenodd" xmlns:xlink="http://www.w3.org/1999/xlink">
<g><path style="opacity:1" fill="#20ac91" d="M 308.5,-0.5 C 313.833,-0.5 319.167,-0.5 324.5,-0.5C 425.471,46.651 526.471,93.8177 627.5,141C 629.402,142.73 631.069,144.563 632.5,146.5C 632.5,151.5 632.5,156.5 632.5,161.5C 631.069,163.437 629.402,165.27 627.5,167C 527.564,214.137 427.564,260.97 327.5,307.5C 322.049,307.486 316.382,307.32 310.5,307C 305.904,306.536 301.571,305.203 297.5,303C 200.559,257.439 103.559,211.772 6.5,166C 3.1151,163.471 0.78177,160.304 -0.5,156.5C -0.5,153.5 -0.5,150.5 -0.5,147.5C 1.25648,143.907 3.92315,141.074 7.5,139C 107.873,92.4788 208.206,45.9788 308.5,-0.5 Z"/></g>
<g><path style="opacity:1" fill="#cfd0d0" d="M -0.5,156.5 C 0.78177,160.304 3.1151,163.471 6.5,166C 103.559,211.772 200.559,257.439 297.5,303C 301.571,305.203 305.904,306.536 310.5,307C 316.382,307.32 322.049,307.486 327.5,307.5C 322.889,308.944 319.722,311.944 318,316.5C 317.5,349.832 317.333,383.165 317.5,416.5C 317.5,417.167 317.167,417.5 316.5,417.5C 314.265,417.205 312.265,417.539 310.5,418.5C 308.146,418.838 305.813,419.338 303.5,420C 204.425,466.49 105.092,512.823 5.5,559C 3.09757,561.671 1.09757,564.505 -0.5,567.5C -0.5,430.5 -0.5,293.5 -0.5,156.5 Z"/></g>
<g><path style="opacity:1" fill="#f3a62f" d="M 317.5,416.5 C 321.622,416.697 325.622,417.53 329.5,419C 429.287,465.393 528.954,512.06 628.5,559C 629.977,560.812 631.31,562.645 632.5,564.5C 632.5,569.167 632.5,573.833 632.5,578.5C 629.175,583.643 624.508,587.143 618.5,589C 521.168,634.002 424.168,679.502 327.5,725.5C 323.833,725.5 320.167,725.5 316.5,725.5C 316.5,622.833 316.5,520.167 316.5,417.5C 317.167,417.5 317.5,417.167 317.5,416.5 Z"/></g>
<g><path style="opacity:1" fill="#f17823" d="M 310.5,418.5 C 312.167,418.5 313.833,418.5 315.5,418.5C 315.5,520.833 315.5,623.167 315.5,725.5C 312.5,725.5 309.5,725.5 306.5,725.5C 207.409,678.791 108.075,632.291 8.5,586C 4.97345,583.638 1.97345,580.804 -0.5,577.5C -0.5,574.167 -0.5,570.833 -0.5,567.5C 1.09757,564.505 3.09757,561.671 5.5,559C 105.092,512.823 204.425,466.49 303.5,420C 305.813,419.338 308.146,418.838 310.5,418.5 Z"/></g>
<g><path style="opacity:1" fill="#f3902a" d="M 310.5,418.5 C 312.265,417.539 314.265,417.205 316.5,417.5C 316.5,520.167 316.5,622.833 316.5,725.5C 316.167,725.5 315.833,725.5 315.5,725.5C 315.5,623.167 315.5,520.833 315.5,418.5C 313.833,418.5 312.167,418.5 310.5,418.5 Z"/></g>
</svg>
